<mxfile host="app.diagrams.net" modified="2024-05-20T06:23:25.192Z" agent="Mozilla/5.0 (Windows NT 10.0; Win64; x64) AppleWebKit/537.36 (KHTML, like Gecko) Chrome/124.0.0.0 Safari/537.36" etag="EA2_eMOi3ugqpxOztFhU" version="24.4.4" type="github">
  <diagram name="Page-1" id="L055mR8C02dLAZMHW5Az">
    <mxGraphModel dx="2284" dy="772" grid="1" gridSize="10" guides="1" tooltips="1" connect="1" arrows="1" fold="1" page="1" pageScale="1" pageWidth="850" pageHeight="1100" math="0" shadow="0">
      <root>
        <mxCell id="0" />
        <mxCell id="1" parent="0" />
        <mxCell id="yzBizzwuF44yqTxVhK1y-10" value="Start to delete students" style="rounded=1;whiteSpace=wrap;html=1;" vertex="1" parent="1">
          <mxGeometry x="250" y="40" width="120" height="60" as="geometry" />
        </mxCell>
        <mxCell id="yzBizzwuF44yqTxVhK1y-11" value="" style="edgeStyle=orthogonalEdgeStyle;rounded=0;orthogonalLoop=1;jettySize=auto;html=1;" edge="1" parent="1" source="yzBizzwuF44yqTxVhK1y-12">
          <mxGeometry relative="1" as="geometry">
            <mxPoint x="310" y="340" as="targetPoint" />
          </mxGeometry>
        </mxCell>
        <mxCell id="yzBizzwuF44yqTxVhK1y-12" value="Delete the student record using remove" style="rounded=1;whiteSpace=wrap;html=1;" vertex="1" parent="1">
          <mxGeometry x="250" y="240" width="120" height="60" as="geometry" />
        </mxCell>
        <mxCell id="yzBizzwuF44yqTxVhK1y-13" value="" style="edgeStyle=orthogonalEdgeStyle;rounded=0;orthogonalLoop=1;jettySize=auto;html=1;" edge="1" parent="1" target="yzBizzwuF44yqTxVhK1y-16">
          <mxGeometry relative="1" as="geometry">
            <mxPoint x="310" y="400" as="sourcePoint" />
          </mxGeometry>
        </mxCell>
        <mxCell id="yzBizzwuF44yqTxVhK1y-17" value="End" style="whiteSpace=wrap;html=1;rounded=1;" vertex="1" parent="1">
          <mxGeometry x="250" y="340" width="120" height="60" as="geometry" />
        </mxCell>
        <mxCell id="yzBizzwuF44yqTxVhK1y-18" value="" style="edgeStyle=orthogonalEdgeStyle;rounded=0;orthogonalLoop=1;jettySize=auto;html=1;" edge="1" parent="1" source="yzBizzwuF44yqTxVhK1y-20" target="yzBizzwuF44yqTxVhK1y-12">
          <mxGeometry relative="1" as="geometry" />
        </mxCell>
        <mxCell id="yzBizzwuF44yqTxVhK1y-19" value="" style="edgeStyle=orthogonalEdgeStyle;rounded=0;orthogonalLoop=1;jettySize=auto;html=1;" edge="1" parent="1" source="yzBizzwuF44yqTxVhK1y-20" target="yzBizzwuF44yqTxVhK1y-23">
          <mxGeometry relative="1" as="geometry" />
        </mxCell>
        <mxCell id="yzBizzwuF44yqTxVhK1y-20" value="Does the id already exist?" style="rhombus;whiteSpace=wrap;html=1;" vertex="1" parent="1">
          <mxGeometry x="230" y="130" width="160" height="80" as="geometry" />
        </mxCell>
        <mxCell id="yzBizzwuF44yqTxVhK1y-21" value="" style="endArrow=classic;html=1;rounded=0;exitX=0.5;exitY=1;exitDx=0;exitDy=0;entryX=0.5;entryY=0;entryDx=0;entryDy=0;" edge="1" parent="1" source="yzBizzwuF44yqTxVhK1y-10" target="yzBizzwuF44yqTxVhK1y-20">
          <mxGeometry width="50" height="50" relative="1" as="geometry">
            <mxPoint x="430" y="360" as="sourcePoint" />
            <mxPoint x="480" y="310" as="targetPoint" />
          </mxGeometry>
        </mxCell>
        <mxCell id="yzBizzwuF44yqTxVhK1y-22" value="Yes" style="text;html=1;align=center;verticalAlign=middle;whiteSpace=wrap;rounded=0;" vertex="1" parent="1">
          <mxGeometry x="310" y="210" width="60" height="30" as="geometry" />
        </mxCell>
        <mxCell id="yzBizzwuF44yqTxVhK1y-23" value="Print the alert about the target non-existing" style="whiteSpace=wrap;html=1;rounded=1;" vertex="1" parent="1">
          <mxGeometry x="440" y="140" width="120" height="60" as="geometry" />
        </mxCell>
        <mxCell id="yzBizzwuF44yqTxVhK1y-24" value="" style="endArrow=classic;html=1;rounded=0;exitX=0.5;exitY=1;exitDx=0;exitDy=0;entryX=1;entryY=0.5;entryDx=0;entryDy=0;" edge="1" parent="1" source="yzBizzwuF44yqTxVhK1y-23" target="yzBizzwuF44yqTxVhK1y-17">
          <mxGeometry width="50" height="50" relative="1" as="geometry">
            <mxPoint x="430" y="360" as="sourcePoint" />
            <mxPoint x="480" y="310" as="targetPoint" />
            <Array as="points">
              <mxPoint x="500" y="370" />
            </Array>
          </mxGeometry>
        </mxCell>
        <mxCell id="yzBizzwuF44yqTxVhK1y-39" value="No" style="text;html=1;align=center;verticalAlign=middle;whiteSpace=wrap;rounded=0;" vertex="1" parent="1">
          <mxGeometry x="380" y="140" width="60" height="30" as="geometry" />
        </mxCell>
        <mxCell id="yzBizzwuF44yqTxVhK1y-49" value="&lt;font style=&quot;font-size: 17px;&quot;&gt;Clarifying Questions&lt;/font&gt;&lt;div style=&quot;&quot;&gt;&lt;span style=&quot;font-size: 17px;&quot;&gt;I think this one is straight forward&lt;/span&gt;&lt;/div&gt;" style="text;html=1;align=left;verticalAlign=middle;whiteSpace=wrap;rounded=0;" vertex="1" parent="1">
          <mxGeometry x="600" y="530" width="460" height="85" as="geometry" />
        </mxCell>
        <mxCell id="yzBizzwuF44yqTxVhK1y-50" value="&lt;span style=&quot;font-size: 17px;&quot;&gt;Time Complexity: O(log n) for add/delete/update; O(n) for display and find student with higher than target gpa;&lt;/span&gt;&lt;div&gt;&lt;span style=&quot;font-size: 17px;&quot;&gt;Space Complexity:&amp;nbsp;&lt;/span&gt;&lt;span style=&quot;font-size: 17px; background-color: initial;&quot;&gt;O(1) for&lt;/span&gt;&lt;span style=&quot;font-size: 17px; background-color: initial;&quot;&gt;&amp;nbsp;all methods&lt;/span&gt;&lt;/div&gt;" style="text;html=1;align=left;verticalAlign=middle;whiteSpace=wrap;rounded=0;" vertex="1" parent="1">
          <mxGeometry x="600" y="630" width="460" height="110" as="geometry" />
        </mxCell>
        <mxCell id="yzBizzwuF44yqTxVhK1y-51" value="Start to add students" style="rounded=1;whiteSpace=wrap;html=1;" vertex="1" parent="1">
          <mxGeometry x="-120" y="40" width="120" height="60" as="geometry" />
        </mxCell>
        <mxCell id="yzBizzwuF44yqTxVhK1y-52" value="" style="edgeStyle=orthogonalEdgeStyle;rounded=0;orthogonalLoop=1;jettySize=auto;html=1;" edge="1" parent="1" source="yzBizzwuF44yqTxVhK1y-53">
          <mxGeometry relative="1" as="geometry">
            <mxPoint x="-60" y="340" as="targetPoint" />
          </mxGeometry>
        </mxCell>
        <mxCell id="yzBizzwuF44yqTxVhK1y-53" value="Add the student record using put" style="rounded=1;whiteSpace=wrap;html=1;" vertex="1" parent="1">
          <mxGeometry x="-120" y="240" width="120" height="60" as="geometry" />
        </mxCell>
        <mxCell id="yzBizzwuF44yqTxVhK1y-58" value="End" style="whiteSpace=wrap;html=1;rounded=1;" vertex="1" parent="1">
          <mxGeometry x="-120" y="340" width="120" height="60" as="geometry" />
        </mxCell>
        <mxCell id="yzBizzwuF44yqTxVhK1y-59" value="" style="edgeStyle=orthogonalEdgeStyle;rounded=0;orthogonalLoop=1;jettySize=auto;html=1;" edge="1" parent="1" source="yzBizzwuF44yqTxVhK1y-61" target="yzBizzwuF44yqTxVhK1y-53">
          <mxGeometry relative="1" as="geometry" />
        </mxCell>
        <mxCell id="yzBizzwuF44yqTxVhK1y-60" value="" style="edgeStyle=orthogonalEdgeStyle;rounded=0;orthogonalLoop=1;jettySize=auto;html=1;" edge="1" parent="1" source="yzBizzwuF44yqTxVhK1y-61" target="yzBizzwuF44yqTxVhK1y-64">
          <mxGeometry relative="1" as="geometry" />
        </mxCell>
        <mxCell id="yzBizzwuF44yqTxVhK1y-61" value="Does the id already exist?" style="rhombus;whiteSpace=wrap;html=1;" vertex="1" parent="1">
          <mxGeometry x="-140" y="130" width="160" height="80" as="geometry" />
        </mxCell>
        <mxCell id="yzBizzwuF44yqTxVhK1y-62" value="" style="endArrow=classic;html=1;rounded=0;exitX=0.5;exitY=1;exitDx=0;exitDy=0;entryX=0.5;entryY=0;entryDx=0;entryDy=0;" edge="1" parent="1" source="yzBizzwuF44yqTxVhK1y-51" target="yzBizzwuF44yqTxVhK1y-61">
          <mxGeometry width="50" height="50" relative="1" as="geometry">
            <mxPoint x="60" y="360" as="sourcePoint" />
            <mxPoint x="110" y="310" as="targetPoint" />
          </mxGeometry>
        </mxCell>
        <mxCell id="yzBizzwuF44yqTxVhK1y-63" value="No" style="text;html=1;align=center;verticalAlign=middle;whiteSpace=wrap;rounded=0;" vertex="1" parent="1">
          <mxGeometry x="-60" y="210" width="60" height="30" as="geometry" />
        </mxCell>
        <mxCell id="yzBizzwuF44yqTxVhK1y-64" value="Print the alert about the id already existing" style="whiteSpace=wrap;html=1;rounded=1;" vertex="1" parent="1">
          <mxGeometry x="70" y="140" width="120" height="60" as="geometry" />
        </mxCell>
        <mxCell id="yzBizzwuF44yqTxVhK1y-65" value="" style="endArrow=classic;html=1;rounded=0;exitX=0.5;exitY=1;exitDx=0;exitDy=0;entryX=1;entryY=0.5;entryDx=0;entryDy=0;" edge="1" parent="1" source="yzBizzwuF44yqTxVhK1y-64" target="yzBizzwuF44yqTxVhK1y-58">
          <mxGeometry width="50" height="50" relative="1" as="geometry">
            <mxPoint x="60" y="360" as="sourcePoint" />
            <mxPoint x="110" y="310" as="targetPoint" />
            <Array as="points">
              <mxPoint x="130" y="370" />
            </Array>
          </mxGeometry>
        </mxCell>
        <mxCell id="yzBizzwuF44yqTxVhK1y-66" value="Yes" style="text;html=1;align=center;verticalAlign=middle;whiteSpace=wrap;rounded=0;" vertex="1" parent="1">
          <mxGeometry x="10" y="140" width="60" height="30" as="geometry" />
        </mxCell>
        <mxCell id="yzBizzwuF44yqTxVhK1y-68" value="Start to update students gpa" style="rounded=1;whiteSpace=wrap;html=1;" vertex="1" parent="1">
          <mxGeometry x="-120" y="430" width="120" height="60" as="geometry" />
        </mxCell>
        <mxCell id="yzBizzwuF44yqTxVhK1y-69" value="" style="edgeStyle=orthogonalEdgeStyle;rounded=0;orthogonalLoop=1;jettySize=auto;html=1;" edge="1" parent="1" source="yzBizzwuF44yqTxVhK1y-70">
          <mxGeometry relative="1" as="geometry">
            <mxPoint x="-60" y="730" as="targetPoint" />
          </mxGeometry>
        </mxCell>
        <mxCell id="yzBizzwuF44yqTxVhK1y-70" value="Update the gpa of the record" style="rounded=1;whiteSpace=wrap;html=1;" vertex="1" parent="1">
          <mxGeometry x="-120" y="630" width="120" height="60" as="geometry" />
        </mxCell>
        <mxCell id="yzBizzwuF44yqTxVhK1y-71" value="End" style="whiteSpace=wrap;html=1;rounded=1;" vertex="1" parent="1">
          <mxGeometry x="-120" y="730" width="120" height="60" as="geometry" />
        </mxCell>
        <mxCell id="yzBizzwuF44yqTxVhK1y-72" value="" style="edgeStyle=orthogonalEdgeStyle;rounded=0;orthogonalLoop=1;jettySize=auto;html=1;" edge="1" parent="1" source="yzBizzwuF44yqTxVhK1y-74" target="yzBizzwuF44yqTxVhK1y-70">
          <mxGeometry relative="1" as="geometry" />
        </mxCell>
        <mxCell id="yzBizzwuF44yqTxVhK1y-73" value="" style="edgeStyle=orthogonalEdgeStyle;rounded=0;orthogonalLoop=1;jettySize=auto;html=1;" edge="1" parent="1" source="yzBizzwuF44yqTxVhK1y-74" target="yzBizzwuF44yqTxVhK1y-77">
          <mxGeometry relative="1" as="geometry" />
        </mxCell>
        <mxCell id="yzBizzwuF44yqTxVhK1y-74" value="Does the id already exist?" style="rhombus;whiteSpace=wrap;html=1;" vertex="1" parent="1">
          <mxGeometry x="-140" y="520" width="160" height="80" as="geometry" />
        </mxCell>
        <mxCell id="yzBizzwuF44yqTxVhK1y-75" value="" style="endArrow=classic;html=1;rounded=0;exitX=0.5;exitY=1;exitDx=0;exitDy=0;entryX=0.5;entryY=0;entryDx=0;entryDy=0;" edge="1" parent="1" source="yzBizzwuF44yqTxVhK1y-68" target="yzBizzwuF44yqTxVhK1y-74">
          <mxGeometry width="50" height="50" relative="1" as="geometry">
            <mxPoint x="60" y="750" as="sourcePoint" />
            <mxPoint x="110" y="700" as="targetPoint" />
          </mxGeometry>
        </mxCell>
        <mxCell id="yzBizzwuF44yqTxVhK1y-76" value="Yes" style="text;html=1;align=center;verticalAlign=middle;whiteSpace=wrap;rounded=0;" vertex="1" parent="1">
          <mxGeometry x="-60" y="600" width="60" height="30" as="geometry" />
        </mxCell>
        <mxCell id="yzBizzwuF44yqTxVhK1y-77" value="Print the alert about the target non-existing" style="whiteSpace=wrap;html=1;rounded=1;" vertex="1" parent="1">
          <mxGeometry x="70" y="530" width="120" height="60" as="geometry" />
        </mxCell>
        <mxCell id="yzBizzwuF44yqTxVhK1y-78" value="" style="endArrow=classic;html=1;rounded=0;exitX=0.5;exitY=1;exitDx=0;exitDy=0;entryX=1;entryY=0.5;entryDx=0;entryDy=0;" edge="1" parent="1" source="yzBizzwuF44yqTxVhK1y-77" target="yzBizzwuF44yqTxVhK1y-71">
          <mxGeometry width="50" height="50" relative="1" as="geometry">
            <mxPoint x="60" y="750" as="sourcePoint" />
            <mxPoint x="110" y="700" as="targetPoint" />
            <Array as="points">
              <mxPoint x="130" y="760" />
            </Array>
          </mxGeometry>
        </mxCell>
        <mxCell id="yzBizzwuF44yqTxVhK1y-79" value="No" style="text;html=1;align=center;verticalAlign=middle;whiteSpace=wrap;rounded=0;" vertex="1" parent="1">
          <mxGeometry x="10" y="530" width="60" height="30" as="geometry" />
        </mxCell>
        <mxCell id="yzBizzwuF44yqTxVhK1y-80" value="Start to display students" style="rounded=1;whiteSpace=wrap;html=1;" vertex="1" parent="1">
          <mxGeometry x="250" y="430" width="120" height="60" as="geometry" />
        </mxCell>
        <mxCell id="yzBizzwuF44yqTxVhK1y-82" value="Print the next student record" style="rounded=1;whiteSpace=wrap;html=1;" vertex="1" parent="1">
          <mxGeometry x="250" y="630" width="120" height="60" as="geometry" />
        </mxCell>
        <mxCell id="yzBizzwuF44yqTxVhK1y-84" value="" style="edgeStyle=orthogonalEdgeStyle;rounded=0;orthogonalLoop=1;jettySize=auto;html=1;" edge="1" parent="1" source="yzBizzwuF44yqTxVhK1y-86" target="yzBizzwuF44yqTxVhK1y-82">
          <mxGeometry relative="1" as="geometry" />
        </mxCell>
        <mxCell id="yzBizzwuF44yqTxVhK1y-85" value="" style="edgeStyle=orthogonalEdgeStyle;rounded=0;orthogonalLoop=1;jettySize=auto;html=1;" edge="1" parent="1" source="yzBizzwuF44yqTxVhK1y-86" target="yzBizzwuF44yqTxVhK1y-89">
          <mxGeometry relative="1" as="geometry" />
        </mxCell>
        <mxCell id="yzBizzwuF44yqTxVhK1y-86" value="Has every record been printed?" style="rhombus;whiteSpace=wrap;html=1;" vertex="1" parent="1">
          <mxGeometry x="230" y="520" width="160" height="80" as="geometry" />
        </mxCell>
        <mxCell id="yzBizzwuF44yqTxVhK1y-87" value="" style="endArrow=classic;html=1;rounded=0;exitX=0.5;exitY=1;exitDx=0;exitDy=0;entryX=0.5;entryY=0;entryDx=0;entryDy=0;" edge="1" parent="1" source="yzBizzwuF44yqTxVhK1y-80" target="yzBizzwuF44yqTxVhK1y-86">
          <mxGeometry width="50" height="50" relative="1" as="geometry">
            <mxPoint x="430" y="750" as="sourcePoint" />
            <mxPoint x="480" y="700" as="targetPoint" />
          </mxGeometry>
        </mxCell>
        <mxCell id="yzBizzwuF44yqTxVhK1y-88" value="No" style="text;html=1;align=center;verticalAlign=middle;whiteSpace=wrap;rounded=0;" vertex="1" parent="1">
          <mxGeometry x="310" y="600" width="60" height="30" as="geometry" />
        </mxCell>
        <mxCell id="yzBizzwuF44yqTxVhK1y-89" value="End" style="whiteSpace=wrap;html=1;rounded=1;" vertex="1" parent="1">
          <mxGeometry x="440" y="530" width="120" height="60" as="geometry" />
        </mxCell>
        <mxCell id="yzBizzwuF44yqTxVhK1y-91" value="Yes" style="text;html=1;align=center;verticalAlign=middle;whiteSpace=wrap;rounded=0;" vertex="1" parent="1">
          <mxGeometry x="380" y="530" width="60" height="30" as="geometry" />
        </mxCell>
        <mxCell id="yzBizzwuF44yqTxVhK1y-92" value="" style="endArrow=classic;html=1;rounded=0;exitX=0;exitY=0.5;exitDx=0;exitDy=0;entryX=0;entryY=0.5;entryDx=0;entryDy=0;" edge="1" parent="1" source="yzBizzwuF44yqTxVhK1y-82" target="yzBizzwuF44yqTxVhK1y-86">
          <mxGeometry width="50" height="50" relative="1" as="geometry">
            <mxPoint x="400" y="440" as="sourcePoint" />
            <mxPoint x="450" y="390" as="targetPoint" />
            <Array as="points">
              <mxPoint x="230" y="660" />
              <mxPoint x="210" y="660" />
              <mxPoint x="210" y="610" />
              <mxPoint x="210" y="560" />
            </Array>
          </mxGeometry>
        </mxCell>
        <mxCell id="yzBizzwuF44yqTxVhK1y-93" value="Start to look for students with gpa higher than target" style="rounded=1;whiteSpace=wrap;html=1;" vertex="1" parent="1">
          <mxGeometry x="630" y="40" width="120" height="60" as="geometry" />
        </mxCell>
        <mxCell id="yzBizzwuF44yqTxVhK1y-106" value="" style="edgeStyle=orthogonalEdgeStyle;rounded=0;orthogonalLoop=1;jettySize=auto;html=1;" edge="1" parent="1" source="yzBizzwuF44yqTxVhK1y-94" target="yzBizzwuF44yqTxVhK1y-105">
          <mxGeometry relative="1" as="geometry" />
        </mxCell>
        <mxCell id="yzBizzwuF44yqTxVhK1y-94" value="Assess the next student record" style="rounded=1;whiteSpace=wrap;html=1;" vertex="1" parent="1">
          <mxGeometry x="630" y="240" width="120" height="60" as="geometry" />
        </mxCell>
        <mxCell id="yzBizzwuF44yqTxVhK1y-96" value="" style="edgeStyle=orthogonalEdgeStyle;rounded=0;orthogonalLoop=1;jettySize=auto;html=1;" edge="1" parent="1" source="yzBizzwuF44yqTxVhK1y-98" target="yzBizzwuF44yqTxVhK1y-94">
          <mxGeometry relative="1" as="geometry" />
        </mxCell>
        <mxCell id="yzBizzwuF44yqTxVhK1y-97" value="" style="edgeStyle=orthogonalEdgeStyle;rounded=0;orthogonalLoop=1;jettySize=auto;html=1;" edge="1" parent="1" source="yzBizzwuF44yqTxVhK1y-98" target="yzBizzwuF44yqTxVhK1y-101">
          <mxGeometry relative="1" as="geometry" />
        </mxCell>
        <mxCell id="yzBizzwuF44yqTxVhK1y-98" value="Has every record been assessed?" style="rhombus;whiteSpace=wrap;html=1;" vertex="1" parent="1">
          <mxGeometry x="610" y="130" width="160" height="80" as="geometry" />
        </mxCell>
        <mxCell id="yzBizzwuF44yqTxVhK1y-99" value="" style="endArrow=classic;html=1;rounded=0;exitX=0.5;exitY=1;exitDx=0;exitDy=0;entryX=0.5;entryY=0;entryDx=0;entryDy=0;" edge="1" parent="1" source="yzBizzwuF44yqTxVhK1y-93" target="yzBizzwuF44yqTxVhK1y-98">
          <mxGeometry width="50" height="50" relative="1" as="geometry">
            <mxPoint x="810" y="360" as="sourcePoint" />
            <mxPoint x="860" y="310" as="targetPoint" />
          </mxGeometry>
        </mxCell>
        <mxCell id="yzBizzwuF44yqTxVhK1y-100" value="No" style="text;html=1;align=center;verticalAlign=middle;whiteSpace=wrap;rounded=0;" vertex="1" parent="1">
          <mxGeometry x="690" y="210" width="60" height="30" as="geometry" />
        </mxCell>
        <mxCell id="yzBizzwuF44yqTxVhK1y-101" value="End" style="whiteSpace=wrap;html=1;rounded=1;" vertex="1" parent="1">
          <mxGeometry x="820" y="140" width="120" height="60" as="geometry" />
        </mxCell>
        <mxCell id="yzBizzwuF44yqTxVhK1y-103" value="Yes" style="text;html=1;align=center;verticalAlign=middle;whiteSpace=wrap;rounded=0;" vertex="1" parent="1">
          <mxGeometry x="760" y="140" width="60" height="30" as="geometry" />
        </mxCell>
        <mxCell id="yzBizzwuF44yqTxVhK1y-108" value="" style="edgeStyle=orthogonalEdgeStyle;rounded=0;orthogonalLoop=1;jettySize=auto;html=1;" edge="1" parent="1" source="yzBizzwuF44yqTxVhK1y-105" target="yzBizzwuF44yqTxVhK1y-107">
          <mxGeometry relative="1" as="geometry" />
        </mxCell>
        <mxCell id="yzBizzwuF44yqTxVhK1y-105" value="Is the current record having a gpa higher than target?" style="rhombus;whiteSpace=wrap;html=1;" vertex="1" parent="1">
          <mxGeometry x="610" y="330" width="160" height="80" as="geometry" />
        </mxCell>
        <mxCell id="yzBizzwuF44yqTxVhK1y-107" value="Print the student record" style="rounded=1;whiteSpace=wrap;html=1;" vertex="1" parent="1">
          <mxGeometry x="630" y="440" width="120" height="60" as="geometry" />
        </mxCell>
        <mxCell id="yzBizzwuF44yqTxVhK1y-109" value="Yes" style="text;html=1;align=center;verticalAlign=middle;whiteSpace=wrap;rounded=0;" vertex="1" parent="1">
          <mxGeometry x="690" y="410" width="60" height="30" as="geometry" />
        </mxCell>
        <mxCell id="yzBizzwuF44yqTxVhK1y-110" value="" style="endArrow=classic;html=1;rounded=0;exitX=0;exitY=0.5;exitDx=0;exitDy=0;entryX=0;entryY=0.5;entryDx=0;entryDy=0;" edge="1" parent="1" source="yzBizzwuF44yqTxVhK1y-105" target="yzBizzwuF44yqTxVhK1y-98">
          <mxGeometry width="50" height="50" relative="1" as="geometry">
            <mxPoint x="400" y="340" as="sourcePoint" />
            <mxPoint x="450" y="290" as="targetPoint" />
            <Array as="points">
              <mxPoint x="590" y="370" />
              <mxPoint x="590" y="270" />
              <mxPoint x="590" y="170" />
            </Array>
          </mxGeometry>
        </mxCell>
        <mxCell id="yzBizzwuF44yqTxVhK1y-111" value="No" style="text;html=1;align=center;verticalAlign=middle;whiteSpace=wrap;rounded=0;" vertex="1" parent="1">
          <mxGeometry x="580" y="380" width="60" height="30" as="geometry" />
        </mxCell>
        <mxCell id="yzBizzwuF44yqTxVhK1y-112" value="" style="endArrow=classic;html=1;rounded=0;exitX=0;exitY=0.5;exitDx=0;exitDy=0;entryX=0;entryY=0.5;entryDx=0;entryDy=0;" edge="1" parent="1" source="yzBizzwuF44yqTxVhK1y-107" target="yzBizzwuF44yqTxVhK1y-98">
          <mxGeometry width="50" height="50" relative="1" as="geometry">
            <mxPoint x="400" y="340" as="sourcePoint" />
            <mxPoint x="450" y="290" as="targetPoint" />
            <Array as="points">
              <mxPoint x="590" y="470" />
              <mxPoint x="590" y="330" />
              <mxPoint x="590" y="170" />
            </Array>
          </mxGeometry>
        </mxCell>
      </root>
    </mxGraphModel>
  </diagram>
</mxfile>
